<svg xmlns="http://www.w3.org/2000/svg" width="340" height="290" fill="none"><path fill="#fff" d="M33.71 27c0-11.046 8.955-20 20-20h232.582c11.045 0 20 8.954 20 20v41.279c0 11.045-8.955 20-20 20H53.711c-11.046 0-20-8.955-20-20V27z"/><path fill="#1B1B1B" fill-opacity=".07" fill-rule="evenodd" d="M286.292 8.5H53.711c-10.217 0-18.5 8.283-18.5 18.5v41.279c0 10.217 8.283 18.5 18.5 18.5h232.581c10.217 0 18.5-8.283 18.5-18.5V27c0-10.217-8.283-18.5-18.5-18.5zM53.711 7c-11.046 0-20 8.954-20 20v41.279c0 11.045 8.954 20 20 20h232.581c11.045 0 20-8.955 20-20V27c0-11.046-8.955-20-20-20H53.711z" clip-rule="evenodd"/><rect width="60.463" height="6.938" x="120.938" y="36.736" fill="#1B1B1B" fill-opacity=".07" rx="3.469"/><rect width="35.683" height="6.938" x="120.938" y="52.596" fill="#1B1B1B" fill-opacity=".07" rx="3.469"/><rect width="61.455" height="61.455" x="43.625" y="16.912" fill="url(#a)" fill-opacity=".04" rx="11"/><path fill="#1B1B1B" fill-rule="evenodd" d="M74.353 37.889c.493 0 .892.4.892.892v17.718a.892.892 0 1 1-1.784 0V38.78c0-.493.4-.892.892-.892z" clip-rule="evenodd"/><path fill="#1B1B1B" fill-rule="evenodd" d="M70.047 56.498c0-.493.4-.892.892-.892h6.815a.892.892 0 1 1 0 1.784h-6.815a.892.892 0 0 1-.892-.892zm-2.629-18.116a.892.892 0 0 1 .798-.493h12.266a.89.89 0 0 1 .798.493l1.363 2.726a.892.892 0 0 1-1.596.798l-1.116-2.233H68.768l-1.117 2.233a.892.892 0 1 1-1.596-.798l1.363-2.726z" clip-rule="evenodd"/><rect width="78.305" height="27.754" x="201.219" y="33.762" fill="#1B1B1B" rx="13.877"/><path fill="#fff" d="m256.213 51.606-.916-5.376h1.123l.676 4.623h.174l.938-4.623h1.821l.927 4.623h.174l.676-4.623h1.123l-.916 5.376h-1.886l-.927-4.612h-.174l-.927 4.612h-1.886zm-4.433.151c-.545 0-1.021-.113-1.428-.338a2.507 2.507 0 0 1-.959-.97c-.226-.422-.338-.91-.338-1.462v-.13c0-.56.112-1.047.338-1.462.225-.421.538-.745.937-.97.407-.232.876-.349 1.407-.349.516 0 .967.117 1.352.35.392.224.698.54.916.948.218.407.327.883.327 1.428v.425H250.2c.014.473.17.85.468 1.134.306.276.684.415 1.134.415.422 0 .738-.095.949-.284.218-.189.385-.407.501-.654l.927.48a3.154 3.154 0 0 1-.447.643c-.189.225-.44.414-.752.567-.313.152-.712.229-1.2.229zm-1.57-3.391h2.977c-.029-.407-.174-.723-.436-.949-.262-.232-.603-.349-1.025-.349-.422 0-.767.117-1.036.35-.262.225-.421.54-.48.948zm-3.683 3.239V46.23h1.124v5.375h-1.124zm.567-6.106a.8.8 0 0 1-.556-.207.754.754 0 0 1-.218-.556c0-.225.073-.407.218-.545a.777.777 0 0 1 .556-.218c.226 0 .411.072.557.218.145.138.218.32.218.545 0 .225-.073.41-.218.556a.777.777 0 0 1-.557.207zm-5.253 6.107-1.81-5.376h1.189l1.428 4.547h.174l1.429-4.547h1.188l-1.81 5.376h-1.788zm-4.951.151c-.545 0-1.021-.113-1.428-.338a2.51 2.51 0 0 1-.96-.97c-.225-.422-.338-.91-.338-1.462v-.13c0-.56.113-1.047.338-1.462.225-.421.538-.745.938-.97.407-.232.876-.349 1.406-.349.516 0 .967.117 1.352.35.393.224.698.54.916.948.218.407.327.883.327 1.428v.425h-4.132c.014.473.171.85.469 1.134.305.276.683.415 1.134.415.421 0 .737-.095.948-.284a1.97 1.97 0 0 0 .502-.654l.927.48a3.154 3.154 0 0 1-.447.643c-.189.225-.44.414-.753.567-.312.152-.712.229-1.199.229zm-1.57-3.391h2.976c-.029-.407-.174-.723-.436-.949-.261-.232-.603-.349-1.025-.349-.421 0-.767.117-1.035.35-.262.225-.422.54-.48.948zm-4.922 3.24v-5.375h1.102v.632h.174a.9.9 0 0 1 .414-.49c.197-.11.437-.164.72-.164h.643v1.014h-.687c-.363 0-.661.102-.894.305-.232.197-.349.502-.349.916v3.162h-1.123zm-9.484-.001V46.23h1.101v.807h.175c.102-.218.283-.422.545-.61.262-.19.65-.284 1.167-.284.407 0 .766.09 1.079.272.32.182.571.44.752.774.182.327.273.724.273 1.189v3.227h-1.123v-3.14c0-.465-.116-.807-.349-1.025-.233-.225-.552-.338-.96-.338-.465 0-.839.153-1.123.458-.276.305-.414.749-.414 1.33v2.715h-1.123zm-2.805 0v-7.632h1.178v7.632h-1.178zM1 124.137c0-11.046 8.954-20 20-20h231.589c11.046 0 20 8.954 20 20v41.278c0 11.046-8.954 20-20 20H21c-11.046 0-20-8.954-20-20v-41.278z"/><path fill="#1B1B1B" fill-opacity=".07" fill-rule="evenodd" d="M252.589 105.637H21c-10.217 0-18.5 8.282-18.5 18.5v41.278c0 10.218 8.283 18.5 18.5 18.5h231.589c10.218 0 18.5-8.282 18.5-18.5v-41.278c0-10.218-8.282-18.5-18.5-18.5zM21 104.137c-11.046 0-20 8.954-20 20v41.278c0 11.046 8.954 20 20 20h231.589c11.046 0 20-8.954 20-20v-41.278c0-11.046-8.954-20-20-20H21z" clip-rule="evenodd"/><rect width="102.094" height="6.938" x="88.227" y="133.873" fill="#1B1B1B" fill-opacity=".07" rx="3.469"/><rect width="59.472" height="6.938" x="88.227" y="149.732" fill="#1B1B1B" fill-opacity=".07" rx="3.469"/><rect width="61.455" height="61.455" x="10.914" y="114.049" fill="url(#b)" fill-opacity=".04" rx="11"/><circle cx="231.955" cy="144.777" r="13.877" fill="#1B1B1B"/><g clip-path="url(#c)"><path fill="#fff" fill-rule="evenodd" d="M236.135 142.102a.99.99 0 0 1-.018 1.401l-4.501 4.393a.99.99 0 0 1-1.393-.009l-2.065-2.065a.99.99 0 1 1 1.401-1.402l1.373 1.373 3.801-3.709a.992.992 0 0 1 1.402.018z" clip-rule="evenodd"/></g><g fill="#1B1B1B" fill-rule="evenodd" clip-path="url(#d)" clip-rule="evenodd"><path d="M35.193 134.453a.891.891 0 0 1 1.261 0l3.23 3.23a.893.893 0 0 1-1.26 1.262l-2.6-2.6-2.616 2.615 2.6 2.6a.893.893 0 0 1-1.261 1.262l-3.231-3.231a.893.893 0 0 1 0-1.262l3.877-3.876zm12.273 12.275a.893.893 0 0 1 1.262 0l1.938 1.938a.897.897 0 0 1 .235.415l1.292 5.169a.892.892 0 0 1-1.082 1.082l-5.169-1.293a.891.891 0 0 1-.414-.234l-1.939-1.939a.891.891 0 1 1 1.262-1.261l1.764 1.763 3.486.872-.871-3.487-1.764-1.763a.893.893 0 0 1 0-1.262zm-16.148 3.2a.893.893 0 0 1 0-1.262l14.214-14.214a.893.893 0 0 1 1.262 0l5.169 5.169a.893.893 0 0 1 0 1.262l-14.214 14.214a.893.893 0 0 1-1.262 0l-5.169-5.169zm1.893-.631 3.907 3.907 12.952-12.952-3.907-3.907-12.952 12.952z"/><path d="M34.55 145.435a.893.893 0 0 1 1.262 0l1.938 1.938a.893.893 0 0 1-1.261 1.262l-1.939-1.938a.893.893 0 0 1 0-1.262zm2.586-2.582a.893.893 0 0 1 1.262 0l1.938 1.938a.893.893 0 0 1-1.261 1.262l-1.939-1.938a.893.893 0 0 1 0-1.262zm2.578-2.584a.893.893 0 0 1 1.262 0l1.938 1.938a.893.893 0 0 1-1.261 1.262l-1.939-1.938a.893.893 0 0 1 0-1.262zm2.586-2.586a.893.893 0 0 1 1.262 0l1.938 1.939a.891.891 0 1 1-1.261 1.261l-1.939-1.938a.893.893 0 0 1 0-1.262z"/></g><path fill="#fff" d="M66.414 221.275c0-11.045 8.954-20 20-20h232.581c11.045 0 20 8.955 20 20v41.279c0 11.046-8.955 20-20 20H86.414c-11.046 0-20-8.954-20-20v-41.279z"/><path fill="#1B1B1B" fill-opacity=".07" fill-rule="evenodd" d="M318.995 202.775H86.415c-10.218 0-18.5 8.283-18.5 18.5v41.279c0 10.217 8.282 18.5 18.499 18.5h232.581c10.217 0 18.5-8.283 18.5-18.5v-41.279c0-10.217-8.283-18.5-18.5-18.5zm-232.58-1.5c-11.047 0-20 8.955-20 20v41.279c0 11.046 8.953 20 19.999 20h232.581c11.045 0 20-8.954 20-20v-41.279c0-11.045-8.955-20-20-20H86.415z" clip-rule="evenodd"/><circle cx="298.353" cy="241.914" r="13.877" fill="#1B1B1B"/><path fill="#fff" fill-rule="evenodd" d="M302.533 239.238a.992.992 0 0 1-.017 1.402l-4.502 4.393a.99.99 0 0 1-1.393-.009l-2.065-2.065a.992.992 0 0 1 1.402-1.402l1.372 1.373 3.801-3.709a.993.993 0 0 1 1.402.017z" clip-rule="evenodd"/><rect width="61.455" height="61.455" x="76.328" y="211.188" fill="url(#e)" fill-opacity=".04" rx="11"/><path fill="#1B1B1B" fill-rule="evenodd" d="M103.117 235.732c0-.493.4-.892.892-.892h6.084a.892.892 0 1 1 0 1.784h-6.084a.892.892 0 0 1-.892-.892zm10.119 2.247c.493 0 .892.399.892.892v6.226a.892.892 0 1 1-1.784 0v-6.226c0-.493.399-.892.892-.892zm-10.119 10.118c0-.493.4-.892.892-.892h6.084a.892.892 0 1 1 0 1.784h-6.084a.892.892 0 0 1-.892-.892zm-2.241-10.118c.493 0 .893.399.893.892v6.226a.892.892 0 0 1-1.785 0v-6.226c0-.493.4-.892.892-.892z" clip-rule="evenodd"/><path fill="#1B1B1B" fill-rule="evenodd" d="M97.242 233.985c0-1.04.843-1.883 1.883-1.883h3.371c1.04 0 1.883.843 1.883 1.883v3.37c0 1.04-.843 1.883-1.883 1.883h-3.37a1.883 1.883 0 0 1-1.884-1.883v-3.37zm1.883-.099a.1.1 0 0 0-.099.099v3.37a.1.1 0 0 0 .1.099h3.37a.1.1 0 0 0 .099-.099v-3.37a.1.1 0 0 0-.099-.099h-3.37zm10.609.099c0-1.04.844-1.883 1.884-1.883h3.37c1.04 0 1.883.843 1.883 1.883v3.37c0 1.04-.843 1.883-1.883 1.883h-3.37a1.884 1.884 0 0 1-1.884-1.883v-3.37zm1.884-.099a.099.099 0 0 0-.099.099v3.37c0 .055.044.099.099.099h3.37a.1.1 0 0 0 .099-.099v-3.37a.1.1 0 0 0-.099-.099h-3.37zm-14.376 12.587c0-1.04.843-1.883 1.883-1.883h3.371c1.04 0 1.883.843 1.883 1.883v3.37c0 1.04-.843 1.884-1.883 1.884h-3.37a1.884 1.884 0 0 1-1.884-1.884v-3.37zm1.883-.099a.1.1 0 0 0-.099.099v3.37a.1.1 0 0 0 .1.099h3.37a.1.1 0 0 0 .099-.099v-3.37a.1.1 0 0 0-.099-.099h-3.37zm10.609.099c0-1.04.844-1.883 1.884-1.883h3.37c1.04 0 1.883.843 1.883 1.883v3.37c0 1.04-.843 1.884-1.883 1.884h-3.37a1.885 1.885 0 0 1-1.884-1.884v-3.37zm1.884-.099a.099.099 0 0 0-.099.099v3.37c0 .055.044.099.099.099h3.37a.1.1 0 0 0 .099-.099v-3.37a.1.1 0 0 0-.099-.099h-3.37z" clip-rule="evenodd"/><rect width="102.094" height="6.938" x="153.641" y="231.012" fill="#1B1B1B" fill-opacity=".07" rx="3.469"/><rect width="59.472" height="6.938" x="153.641" y="246.871" fill="#1B1B1B" fill-opacity=".07" rx="3.469"/><defs><linearGradient id="a" x1="111.522" x2="47.094" y1="49.622" y2="49.622" gradientUnits="userSpaceOnUse"><stop stop-color="#1B1B1B"/><stop offset="1" stop-color="#1B1B1B" stop-opacity="0"/></linearGradient><linearGradient id="b" x1="78.811" x2="14.383" y1="146.758" y2="146.758" gradientUnits="userSpaceOnUse"><stop stop-color="#1B1B1B"/><stop offset="1" stop-color="#1B1B1B" stop-opacity="0"/></linearGradient><linearGradient id="e" x1="144.225" x2="79.797" y1="243.897" y2="243.897" gradientUnits="userSpaceOnUse"><stop stop-color="#1B1B1B"/><stop offset="1" stop-color="#1B1B1B" stop-opacity="0"/></linearGradient><clipPath id="c"><path fill="#fff" d="M227 139.82h9.912v9.912H227z"/></clipPath><clipPath id="d"><path fill="#fff" d="M30.734 133.873H52.54v21.806H30.734z"/></clipPath></defs></svg>