<svg xmlns="http://www.w3.org/2000/svg" width="722" height="722" fill="none"><path stroke="url(#a)" d="M245.5 8v327" opacity=".1"/><path stroke="url(#b)" d="M716 593.5H513" opacity=".1"/><path stroke="url(#c)" d="M233 353.5H7" opacity=".1"/><path stroke="url(#d)" d="M716 473.5H7" opacity=".1"/><path fill="url(#e)" d="M376 112h217v2H376z"/><path stroke="url(#f)" d="M125.5 8v706" opacity=".1"/><path fill="#252628" d="M606 124v99h-2v-99z"/><rect width="120" height="120" x="125.5" y="113.5" stroke="#fff" opacity=".3" rx="34.5"/><rect width="120" height="120" x="125.5" y="473.5" stroke="url(#g)" opacity=".3" rx="34.5"/><path stroke="#51ABFF" stroke-linecap="round" stroke-linejoin="round" stroke-width="2.5" d="M605 125v96"/><path fill="url(#h)" d="M377 233h216v2H377z"/><path fill="#fff" d="M450.21 201h-11.25l20.483-58.182h13.012L492.966 201h-11.25l-15.54-46.25h-.454L450.21 201zm.37-22.812h30.681v8.465H450.58v-8.465zm59.152 23.693c-2.766 0-5.256-.493-7.472-1.478-2.197-1.003-3.939-2.481-5.227-4.431-1.269-1.951-1.904-4.356-1.904-7.216 0-2.462.455-4.498 1.364-6.108a10.56 10.56 0 0 1 3.721-3.864c1.572-.966 3.343-1.695 5.313-2.187a43.094 43.094 0 0 1 6.165-1.108c2.557-.266 4.63-.502 6.221-.711 1.591-.227 2.747-.568 3.466-1.022.739-.474 1.108-1.203 1.108-2.188v-.17c0-2.14-.634-3.798-1.903-4.972-1.269-1.174-3.097-1.761-5.483-1.761-2.519 0-4.517.549-5.994 1.647-1.459 1.099-2.444 2.396-2.955 3.893l-9.602-1.364c.757-2.652 2.007-4.868 3.75-6.648 1.742-1.799 3.873-3.144 6.392-4.034 2.519-.909 5.303-1.364 8.352-1.364 2.102 0 4.195.247 6.278.739a17.687 17.687 0 0 1 5.711 2.443c1.723 1.118 3.106 2.642 4.147 4.574 1.061 1.932 1.591 4.347 1.591 7.244V201h-9.886v-5.994h-.341c-.625 1.212-1.506 2.348-2.642 3.409-1.117 1.041-2.528 1.884-4.233 2.528-1.686.625-3.665.938-5.937.938zm2.67-7.557c2.064 0 3.854-.407 5.369-1.222 1.515-.833 2.68-1.932 3.495-3.295a8.4 8.4 0 0 0 1.25-4.46v-5.142c-.322.265-.872.511-1.648.738-.758.227-1.61.426-2.557.597-.947.17-1.884.322-2.812.454-.928.133-1.733.247-2.415.341-1.534.209-2.907.549-4.12 1.023-1.212.473-2.168 1.136-2.869 1.989-.701.833-1.051 1.912-1.051 3.238 0 1.894.691 3.324 2.074 4.29 1.382.966 3.144 1.449 5.284 1.449z"/><rect width="115" height="52" x="56" y="569" fill="#2A2C2E" stroke="#fff" stroke-width="2" rx="26"/><path fill="#fff" d="M97.011 600.21c-1.28 0-2.295-.36-3.045-1.08-.75-.73-1.125-1.78-1.125-3.15v-2.46c0-1.37.375-2.415 1.125-3.135.75-.73 1.765-1.095 3.045-1.095 1.26 0 2.23.35 2.91 1.05.69.7 1.035 1.655 1.035 2.865v.09h-1.605v-.135c0-.71-.195-1.29-.585-1.74-.38-.45-.965-.675-1.755-.675-.8 0-1.425.245-1.875.735-.45.48-.675 1.15-.675 2.01v2.52c0 .85.225 1.52.675 2.01.45.49 1.075.735 1.875.735.79 0 1.375-.225 1.755-.675.39-.46.585-1.04.585-1.74v-.255h1.605v.21c0 1.21-.345 2.165-1.035 2.865-.68.7-1.65 1.05-2.91 1.05zm5.784-.21v-10.5h1.545V600h-1.545zm3.838 0v-7.395h1.545V600h-1.545zm.78-8.4a1.1 1.1 0 0 1-.765-.285c-.2-.2-.3-.455-.3-.765s.1-.56.3-.75c.21-.2.465-.3.765-.3.31 0 .565.1.765.3.2.19.3.44.3.75s-.1.565-.3.765c-.2.19-.455.285-.765.285zm6.448 8.61c-.75 0-1.405-.155-1.965-.465-.56-.32-1-.765-1.32-1.335-.31-.58-.465-1.25-.465-2.01v-.18c0-.77.155-1.44.465-2.01.31-.58.74-1.025 1.29-1.335.56-.32 1.205-.48 1.935-.48.71 0 1.33.16 1.86.48.54.31.96.745 1.26 1.305.3.56.45 1.215.45 1.965v.585h-5.685c.02.65.235 1.17.645 1.56.42.38.94.57 1.56.57.58 0 1.015-.13 1.305-.39.3-.26.53-.56.69-.9l1.275.66c-.14.28-.345.575-.615.885-.26.31-.605.57-1.035.78-.43.21-.98.315-1.65.315zm-2.16-4.665h4.095c-.04-.56-.24-.995-.6-1.305-.36-.32-.83-.48-1.41-.48s-1.055.16-1.425.48c-.36.31-.58.745-.66 1.305zM119.23 600v-7.395h1.515v1.11h.24c.14-.3.39-.58.75-.84s.895-.39 1.605-.39c.56 0 1.055.125 1.485.375.44.25.785.605 1.035 1.065.25.45.375.995.375 1.635V600h-1.545v-4.32c0-.64-.16-1.11-.48-1.41-.32-.31-.76-.465-1.32-.465-.64 0-1.155.21-1.545.63-.38.42-.57 1.03-.57 1.83V600h-1.545zm11.799 0c-.45 0-.81-.135-1.08-.405-.26-.27-.39-.63-.39-1.08v-4.605h-2.04v-1.305h2.04v-2.445h1.545v2.445h2.205v1.305h-2.205v4.335c0 .3.14.45.42.45h1.545V600h-2.04z"/><path stroke="#51ABFF" stroke-linecap="round" stroke-linejoin="round" stroke-width="2.5" d="M377 113h217m-1 121H377m-11-109v96m8-119h-17a3 3 0 0 0-3 3v17a3 3 0 0 0 3 3h17a3 3 0 0 0 3-3v-17a3 3 0 0 0-3-3zm0 120h-17a3 3 0 0 0-3 3v17a3 3 0 0 0 3 3h17a3 3 0 0 0 3-3v-17a3 3 0 0 0-3-3zm240-121h-17a3 3 0 0 0-3 3v17a3 3 0 0 0 3 3h17a3 3 0 0 0 3-3v-17a3 3 0 0 0-3-3zm0 121h-17a3 3 0 0 0-3 3v17a3 3 0 0 0 3 3h17a3 3 0 0 0 3-3v-17a3 3 0 0 0-3-3z"/><path fill="#fff" stroke="#222943" stroke-linecap="round" stroke-linejoin="round" d="M181.326 561.116a2 2 0 0 0-2.425-2.367l-14.694 3.553c-1.011.244-1.12 1.64-.159 2.038v0c5.444 2.255 9.754 6.725 11.87 12.224v0c.389 1.01 1.864.929 2.093-.129l3.315-15.319z"/><mask id="j" width="1" height="706" x="605" y="8" maskUnits="userSpaceOnUse" style="mask-type:alpha"><path fill="url(#i)" fill-rule="evenodd" d="M605 714V8h1v706h-1z" clip-rule="evenodd" opacity=".1"/></mask><g fill="#D9D9D9" mask="url(#j)"><path d="M592 102h23V1h-23zm0 657h23V245h-23z"/></g><rect width="120" height="120" x="485.5" y="353.5" stroke="url(#k)" opacity=".3" rx="34.5"/><g filter="url(#l)"><rect width="124" height="54" x="567" y="387" fill="#3B3B3D" rx="27"/><rect width="123" height="53" x="567.5" y="387.5" stroke="url(#m)" stroke-opacity=".4" rx="26.5"/></g><path fill="#fff" d="M597.786 419v-1.44h1.41v-7.62h-1.41v-1.44h4.2c1.4 0 2.47.355 3.21 1.065.75.71 1.125 1.78 1.125 3.21v1.965c0 1.43-.375 2.5-1.125 3.21-.74.7-1.81 1.05-3.21 1.05h-4.2zm3.045-1.47h1.17c.91 0 1.585-.23 2.025-.69.44-.46.66-1.145.66-2.055v-2.07c0-.92-.22-1.605-.66-2.055-.44-.45-1.115-.675-2.025-.675h-1.17v7.545zm10.756 1.68c-.75 0-1.405-.155-1.965-.465-.56-.32-1-.765-1.32-1.335-.31-.58-.465-1.25-.465-2.01v-.18c0-.77.155-1.44.465-2.01.31-.58.74-1.025 1.29-1.335.56-.32 1.205-.48 1.935-.48.71 0 1.33.16 1.86.48.54.31.96.745 1.26 1.305.3.56.45 1.215.45 1.965v.585h-5.685c.02.65.235 1.17.645 1.56.42.38.94.57 1.56.57.58 0 1.015-.13 1.305-.39.3-.26.53-.56.69-.9l1.275.66c-.14.28-.345.575-.615.885-.26.31-.605.57-1.035.78-.43.21-.98.315-1.65.315zm-2.16-4.665h4.095c-.04-.56-.24-.995-.6-1.305-.36-.32-.83-.48-1.41-.48s-1.055.16-1.425.48c-.36.31-.58.745-.66 1.305zm10.559 4.665c-.94 0-1.72-.21-2.34-.63-.62-.42-1-1.055-1.14-1.905l1.44-.345c.08.41.215.735.405.975.19.24.425.41.705.51.29.1.6.15.93.15.49 0 .865-.095 1.125-.285.27-.19.405-.435.405-.735s-.125-.52-.375-.66-.62-.255-1.11-.345l-.51-.09a6.62 6.62 0 0 1-1.365-.39 2.39 2.39 0 0 1-.975-.705c-.24-.3-.36-.685-.36-1.155 0-.7.26-1.24.78-1.62.52-.39 1.21-.585 2.07-.585.83 0 1.51.19 2.04.57.54.37.89.875 1.05 1.515l-1.44.405c-.09-.45-.28-.765-.57-.945-.29-.19-.65-.285-1.08-.285-.42 0-.75.08-.99.24a.718.718 0 0 0-.36.645c0 .3.115.52.345.66.24.14.56.245.96.315l.525.09c.53.09 1.015.215 1.455.375.44.16.785.39 1.035.69.26.3.39.7.39 1.2 0 .74-.275 1.315-.825 1.725-.55.41-1.29.615-2.22.615zm4.851-.21v-7.395h1.545V419h-1.545zm.78-8.4a1.1 1.1 0 0 1-.765-.285c-.2-.2-.3-.455-.3-.765s.1-.56.3-.75c.21-.2.465-.3.765-.3.31 0 .565.1.765.3.2.19.3.44.3.75s-.1.565-.3.765c-.2.19-.455.285-.765.285zm2.698 4.74v-.225c0-.78.155-1.445.465-1.995.32-.55.74-.975 1.26-1.275.52-.3 1.09-.45 1.71-.45.72 0 1.27.135 1.65.405.39.27.675.56.855.87h.24v-1.065h1.5v8.91c0 .45-.135.81-.405 1.08-.26.27-.62.405-1.08.405h-4.98v-1.35h4.5c.29 0 .435-.15.435-.45v-2.355h-.24c-.11.18-.265.365-.465.555-.2.19-.465.345-.795.465-.32.12-.725.18-1.215.18-.62 0-1.195-.145-1.725-.435-.52-.3-.935-.725-1.245-1.275-.31-.56-.465-1.225-.465-1.995zm3.855 2.355c.67 0 1.22-.21 1.65-.63.44-.43.66-1.02.66-1.77v-.135c0-.77-.215-1.36-.645-1.77-.43-.42-.985-.63-1.665-.63-.66 0-1.21.21-1.65.63-.43.41-.645 1-.645 1.77v.135c0 .75.215 1.34.645 1.77.44.42.99.63 1.65.63zm6.1 1.305v-7.395h1.515v1.11h.24c.14-.3.39-.58.75-.84s.895-.39 1.605-.39c.56 0 1.055.125 1.485.375.44.25.785.605 1.035 1.065.25.45.375.995.375 1.635V419h-1.545v-4.32c0-.64-.16-1.11-.48-1.41-.32-.31-.76-.465-1.32-.465-.64 0-1.155.21-1.545.63-.38.42-.57 1.03-.57 1.83V419h-1.545zm12.618.21c-.75 0-1.405-.155-1.965-.465-.56-.32-1-.765-1.32-1.335-.31-.58-.465-1.25-.465-2.01v-.18c0-.77.155-1.44.465-2.01.31-.58.74-1.025 1.29-1.335.56-.32 1.205-.48 1.935-.48.71 0 1.33.16 1.86.48.54.31.96.745 1.26 1.305.3.56.45 1.215.45 1.965v.585h-5.685c.02.65.235 1.17.645 1.56.42.38.94.57 1.56.57.58 0 1.015-.13 1.305-.39.3-.26.53-.56.69-.9l1.275.66c-.14.28-.345.575-.615.885-.26.31-.605.57-1.035.78-.43.21-.98.315-1.65.315zm-2.16-4.665h4.095c-.04-.56-.24-.995-.6-1.305-.36-.32-.83-.48-1.41-.48s-1.055.16-1.425.48c-.36.31-.58.745-.66 1.305zm7.53 4.455v-7.395h1.515v.87h.24c.12-.31.31-.535.57-.675.27-.15.6-.225.99-.225h.885v1.395h-.945c-.5 0-.91.14-1.23.42-.32.27-.48.69-.48 1.26V419h-1.545z"/><path fill="#51ABFF" stroke="#222943" stroke-linecap="round" stroke-linejoin="round" d="M558.674 381.116a2 2 0 0 1 2.425-2.367l14.694 3.553c1.011.244 1.12 1.64.159 2.038v0c-5.444 2.255-9.754 6.725-11.87 12.224v0c-.389 1.01-1.864.929-2.093-.129l-3.315-15.319z"/><g filter="url(#n)"><rect width="241" height="241" x="245" y="353" fill="#3B3F3F" rx="50"/><rect width="240" height="240" x="245.5" y="353.5" stroke="url(#o)" stroke-opacity=".4" rx="49.5"/></g><g filter="url(#p)"><mask id="r" fill="#fff"><path d="M421.347 417.628a79.001 79.001 0 0 1 22.65 56.061l-36.339-.317a42.66 42.66 0 0 0-12.231-30.273l25.92-25.471z"/></mask><path stroke="url(#q)" stroke-width="70" d="M421.347 417.628a79.001 79.001 0 0 1 22.65 56.061l-36.339-.317a42.66 42.66 0 0 0-12.231-30.273l25.92-25.471z" mask="url(#r)"/><mask id="t" fill="#fff"><path d="M443.997 473.689a79.002 79.002 0 0 1-23.625 55.658l-25.471-25.92a42.655 42.655 0 0 0 12.757-30.055l36.339.317z"/></mask><path stroke="url(#s)" stroke-width="70" d="M443.997 473.689a79.002 79.002 0 0 1-23.625 55.658l-25.471-25.92a42.655 42.655 0 0 0 12.757-30.055l36.339.317z" mask="url(#t)"/><mask id="v" fill="#fff"><path d="M420.372 529.347a79.001 79.001 0 0 1-56.061 22.65l.317-36.339a42.66 42.66 0 0 0 30.273-12.231l25.471 25.92z"/></mask><path stroke="url(#u)" stroke-width="70" d="M420.372 529.347a79.001 79.001 0 0 1-56.061 22.65l.317-36.339a42.66 42.66 0 0 0 30.273-12.231l25.471 25.92z" mask="url(#v)"/><mask id="x" fill="#fff"><path d="M364.311 551.997a79.002 79.002 0 0 1-55.658-23.625l25.92-25.471a42.655 42.655 0 0 0 30.055 12.757l-.317 36.339z"/></mask><path stroke="url(#w)" stroke-width="70" d="M364.311 551.997a79.002 79.002 0 0 1-55.658-23.625l25.92-25.471a42.655 42.655 0 0 0 30.055 12.757l-.317 36.339z" mask="url(#x)"/><mask id="z" fill="#fff"><path d="M308.653 528.372a79.001 79.001 0 0 1-22.65-56.061l36.339.317a42.66 42.66 0 0 0 12.231 30.273l-25.92 25.471z"/></mask><path stroke="url(#y)" stroke-width="70" d="M308.653 528.372a79.001 79.001 0 0 1-22.65-56.061l36.339.317a42.66 42.66 0 0 0 12.231 30.273l-25.92 25.471z" mask="url(#z)"/><mask id="B" fill="#fff"><path d="M286.003 472.311a79.002 79.002 0 0 1 23.625-55.658l25.471 25.92a42.655 42.655 0 0 0-12.757 30.055l-36.339-.317z"/></mask><path stroke="url(#A)" stroke-width="70" d="M286.003 472.311a79.002 79.002 0 0 1 23.625-55.658l25.471 25.92a42.655 42.655 0 0 0-12.757 30.055l-36.339-.317z" mask="url(#B)"/><mask id="D" fill="#fff"><path d="M309.628 416.653a79.001 79.001 0 0 1 56.061-22.65l-.317 36.339a42.66 42.66 0 0 0-30.273 12.231l-25.471-25.92z"/></mask><path stroke="url(#C)" stroke-width="70" d="M309.628 416.653a79.001 79.001 0 0 1 56.061-22.65l-.317 36.339a42.66 42.66 0 0 0-30.273 12.231l-25.471-25.92z" mask="url(#D)"/><mask id="F" fill="#fff"><path d="M365.689 394.003a79.002 79.002 0 0 1 55.658 23.625l-25.92 25.471a42.655 42.655 0 0 0-30.055-12.757l.317-36.339z"/></mask><path stroke="url(#E)" stroke-width="70" d="M365.689 394.003a79.002 79.002 0 0 1 55.658 23.625l-25.92 25.471a42.655 42.655 0 0 0-30.055-12.757l.317-36.339z" mask="url(#F)"/></g><mask id="H" width="1" height="327" x="365" y="8" maskUnits="userSpaceOnUse" style="mask-type:alpha"><path stroke="url(#G)" d="M365.5 8v327" opacity=".1"/></mask><g fill="#D9D9D9" mask="url(#H)"><path d="M352 0h29v102h-29zm0 245h29v108h-29z"/></g><mask id="J" width="1" height="327" x="485" y="8" maskUnits="userSpaceOnUse" style="mask-type:alpha"><path stroke="url(#I)" d="M485.5 8v327" opacity=".1"/></mask><g fill="#D9D9D9" mask="url(#J)"><path d="M473 0h25v112h-25zm0 235h25v112h-25z"/></g><mask id="L" width="709" height="1" x="7" y="113" maskUnits="userSpaceOnUse" style="mask-type:alpha"><path stroke="url(#K)" d="M716 113.5H7" opacity=".1"/></mask><g fill="#D9D9D9" mask="url(#L)"><path d="M-13 102h367v28H-13zm630 0h101v28H617z"/></g><mask id="N" width="709" height="1" x="7" y="233" maskUnits="userSpaceOnUse" style="mask-type:alpha"><path stroke="url(#M)" d="M716 233.5H7" opacity=".1"/></mask><g fill="#D9D9D9" mask="url(#N)"><path d="M-11 222h365v23H-11zm628 0h118v23H617z"/></g><g filter="url(#O)"><rect width="89" height="302" x="82" y="172" fill="#38393A" rx="27"/><rect width="88" height="301" x="82.5" y="172.5" stroke="url(#P)" stroke-opacity=".4" rx="26.5"/></g><g filter="url(#Q)"><rect width="65" height="64" x="94" y="257" fill="#fff" rx="18"/></g><path stroke="#fff" stroke-linecap="round" stroke-linejoin="round" stroke-width="1.5" d="M117.18 418.418h19.638m-13.091 0v14.401m11.127-19.637h-15.71a1.963 1.963 0 0 0-1.964 1.963v15.711c0 1.085.879 1.964 1.964 1.964h15.71a1.964 1.964 0 0 0 1.964-1.964v-15.711a1.963 1.963 0 0 0-1.964-1.963zm-9.156-187.909a1.964 1.964 0 1 0 0-3.928 1.964 1.964 0 0 0 0 3.928zm-8.51 6.546 7.121-7.122m2.043-12.515 10.472 10.472"/><path stroke="#fff" stroke-linecap="round" stroke-linejoin="round" stroke-width="1.5" d="m134.206 220.037-2.618 9.164-14.4 2.618 2.618-14.4 9.163-2.618"/><path stroke="#222943" stroke-linecap="round" stroke-linejoin="round" stroke-width="1.5" d="M127 279.182v19.636m-3.781 0h7.552m4.532-16.615-1.511-3.021h-13.594l-1.51 3.021"/><path stroke="#fff" stroke-linecap="round" stroke-linejoin="round" stroke-width="1.5" d="m129.68 356.893 6.39-6.337a2.561 2.561 0 1 0-3.623-3.624l-6.338 6.391m-6.803 4.017c-1.823 1.785-2.126 8.479-2.126 8.479s6.683-.594 8.508-2.231a4.38 4.38 0 0 0 0-6.248 4.465 4.465 0 0 0-6.229-.148c-.053.048-.103.098-.153.148z"/><defs><linearGradient id="a" x1="243.987" x2="243.987" y1="335" y2="8" gradientUnits="userSpaceOnUse"><stop stop-color="#F3F4FA" stop-opacity="0"/><stop offset=".295" stop-color="#F3F4FA"/><stop offset=".695" stop-color="#F3F4FA"/><stop offset="1" stop-color="#F3F4FA" stop-opacity=".1"/></linearGradient><linearGradient id="b" x1="513" x2="716" y1="591.987" y2="591.987" gradientUnits="userSpaceOnUse"><stop stop-color="#F3F4FA" stop-opacity="0"/><stop offset=".295" stop-color="#F3F4FA"/><stop offset=".695" stop-color="#F3F4FA"/><stop offset="1" stop-color="#F3F4FA" stop-opacity=".1"/></linearGradient><linearGradient id="c" x1="7" x2="233" y1="351.987" y2="351.987" gradientUnits="userSpaceOnUse"><stop stop-color="#F3F4FA" stop-opacity="0"/><stop offset=".44" stop-color="#F3F4FA"/><stop offset=".59" stop-color="#F3F4FA"/><stop offset="1" stop-color="#F3F4FA" stop-opacity=".1"/></linearGradient><linearGradient id="d" x1="7" x2="716" y1="471.987" y2="471.987" gradientUnits="userSpaceOnUse"><stop stop-color="#F3F4FA" stop-opacity="0"/><stop offset=".161" stop-color="#F3F4FA"/><stop offset=".836" stop-color="#F3F4FA"/><stop offset="1" stop-color="#F3F4FA" stop-opacity=".1"/></linearGradient><linearGradient id="e" x1="376" x2="593" y1="113" y2="113" gradientUnits="userSpaceOnUse"><stop stop-color="#27292A"/><stop offset="1" stop-color="#242527"/></linearGradient><linearGradient id="f" x1="123.987" x2="123.987" y1="714" y2="8" gradientUnits="userSpaceOnUse"><stop stop-color="#F3F4FA" stop-opacity="0"/><stop offset=".161" stop-color="#F3F4FA"/><stop offset=".836" stop-color="#F3F4FA"/><stop offset="1" stop-color="#F3F4FA" stop-opacity=".1"/></linearGradient><linearGradient id="g" x1="125" x2="246" y1="527.5" y2="527.5" gradientUnits="userSpaceOnUse"><stop stop-color="#fff"/><stop offset=".71" stop-color="#fff" stop-opacity=".05"/><stop offset="1" stop-color="#fff" stop-opacity="0"/></linearGradient><linearGradient id="h" x1="377" x2="593" y1="234" y2="234" gradientUnits="userSpaceOnUse"><stop stop-color="#292A2D"/><stop offset="1" stop-color="#262728"/></linearGradient><linearGradient id="i" x1="603.995" x2="603.995" y1="714" y2="8" gradientUnits="userSpaceOnUse"><stop stop-color="#F3F4FA" stop-opacity="0"/><stop offset=".161" stop-color="#F3F4FA"/><stop offset=".836" stop-color="#F3F4FA"/><stop offset="1" stop-color="#F3F4FA" stop-opacity=".1"/></linearGradient><linearGradient id="k" x1="606" x2="485" y1="406" y2="406" gradientUnits="userSpaceOnUse"><stop stop-color="#fff"/><stop offset=".73" stop-color="#fff" stop-opacity=".05"/><stop offset="1" stop-color="#fff" stop-opacity="0"/></linearGradient><linearGradient id="m" x1="629" x2="629" y1="387" y2="441" gradientUnits="userSpaceOnUse"><stop stop-color="#fff"/><stop offset="1" stop-color="#fff" stop-opacity="0"/></linearGradient><linearGradient id="o" x1="365.5" x2="365.5" y1="353" y2="594" gradientUnits="userSpaceOnUse"><stop stop-color="#fff"/><stop offset="1" stop-color="#fff" stop-opacity="0"/></linearGradient><linearGradient id="q" x1="437.5" x2="405" y1="442.5" y2="457" gradientUnits="userSpaceOnUse"><stop stop-color="#F04249"/><stop offset="1" stop-color="#F04249"/></linearGradient><linearGradient id="s" x1="437.5" x2="404.5" y1="503.5" y2="489.5" gradientUnits="userSpaceOnUse"><stop stop-color="#F3683F"/><stop offset="1" stop-color="#F3683F"/></linearGradient><linearGradient id="u" x1="395.5" x2="381" y1="545.5" y2="512.5" gradientUnits="userSpaceOnUse"><stop stop-color="#F89E30"/><stop offset="1" stop-color="#F89E30"/></linearGradient><linearGradient id="w" x1="335.5" x2="349" y1="546.5" y2="512.5" gradientUnits="userSpaceOnUse"><stop stop-color="#FFF657"/><stop offset="0" stop-color="#FFF214"/></linearGradient><linearGradient id="y" x1="325" x2="291.5" y1="489.5" y2="503.5" gradientUnits="userSpaceOnUse"><stop stop-color="#06B75C"/><stop offset="1" stop-color="#06B75C"/></linearGradient><linearGradient id="A" x1="325.5" x2="291.5" y1="456" y2="442.5" gradientUnits="userSpaceOnUse"><stop stop-color="#058DE6"/><stop offset="1" stop-color="#058DE6"/></linearGradient><linearGradient id="C" x1="337" x2="349.5" y1="399" y2="433" gradientUnits="userSpaceOnUse"><stop stop-color="#7333A3"/><stop offset="1" stop-color="#7333A3"/></linearGradient><linearGradient id="E" x1="395.5" x2="382" y1="400" y2="434" gradientUnits="userSpaceOnUse"><stop stop-color="#BF2674"/><stop offset="1" stop-color="#BF2674"/></linearGradient><linearGradient id="G" x1="363.987" x2="363.987" y1="335" y2="8" gradientUnits="userSpaceOnUse"><stop stop-color="#F3F4FA" stop-opacity="0"/><stop offset=".295" stop-color="#F3F4FA"/><stop offset=".695" stop-color="#F3F4FA"/><stop offset="1" stop-color="#F3F4FA" stop-opacity=".1"/></linearGradient><linearGradient id="I" x1="483.987" x2="483.987" y1="335" y2="8" gradientUnits="userSpaceOnUse"><stop stop-color="#F3F4FA" stop-opacity="0"/><stop offset=".295" stop-color="#F3F4FA"/><stop offset=".695" stop-color="#F3F4FA"/><stop offset="1" stop-color="#F3F4FA" stop-opacity=".1"/></linearGradient><linearGradient id="K" x1="7" x2="716" y1="111.987" y2="111.987" gradientUnits="userSpaceOnUse"><stop stop-color="#F3F4FA" stop-opacity="0"/><stop offset=".161" stop-color="#F3F4FA"/><stop offset=".836" stop-color="#F3F4FA"/><stop offset="1" stop-color="#F3F4FA" stop-opacity=".1"/></linearGradient><linearGradient id="M" x1="7" x2="716" y1="231.987" y2="231.987" gradientUnits="userSpaceOnUse"><stop stop-color="#F3F4FA" stop-opacity="0"/><stop offset=".161" stop-color="#F3F4FA"/><stop offset=".836" stop-color="#F3F4FA"/><stop offset="1" stop-color="#F3F4FA" stop-opacity=".1"/></linearGradient><linearGradient id="P" x1="126.5" x2="126.5" y1="172" y2="474" gradientUnits="userSpaceOnUse"><stop stop-color="#fff"/><stop offset="1" stop-color="#fff" stop-opacity="0"/></linearGradient><filter id="l" width="154" height="84" x="552" y="372" color-interpolation-filters="sRGB" filterUnits="userSpaceOnUse"><feFlood flood-opacity="0" result="BackgroundImageFix"/><feGaussianBlur in="BackgroundImageFix" stdDeviation="7.5"/><feComposite in2="SourceAlpha" operator="in" result="effect1_backgroundBlur_1185_234"/><feBlend in="SourceGraphic" in2="effect1_backgroundBlur_1185_234" result="shape"/></filter><filter id="n" width="291" height="291" x="220" y="328" color-interpolation-filters="sRGB" filterUnits="userSpaceOnUse"><feFlood flood-opacity="0" result="BackgroundImageFix"/><feGaussianBlur in="BackgroundImageFix" stdDeviation="12.5"/><feComposite in2="SourceAlpha" operator="in" result="effect1_backgroundBlur_1185_234"/><feBlend in="SourceGraphic" in2="effect1_backgroundBlur_1185_234" result="shape"/></filter><filter id="p" width="212" height="212" x="259" y="376" color-interpolation-filters="sRGB" filterUnits="userSpaceOnUse"><feFlood flood-opacity="0" result="BackgroundImageFix"/><feColorMatrix in="SourceAlpha" result="hardAlpha" values="0 0 0 0 0 0 0 0 0 0 0 0 0 0 0 0 0 0 127 0"/><feOffset dy="9"/><feGaussianBlur stdDeviation="13.5"/><feComposite in2="hardAlpha" operator="out"/><feColorMatrix values="0 0 0 0 0 0 0 0 0 0 0 0 0 0 0 0 0 0 0.13 0"/><feBlend in2="BackgroundImageFix" result="effect1_dropShadow_1185_234"/><feBlend in="SourceGraphic" in2="effect1_dropShadow_1185_234" result="shape"/></filter><filter id="O" width="117" height="330" x="68" y="158" color-interpolation-filters="sRGB" filterUnits="userSpaceOnUse"><feFlood flood-opacity="0" result="BackgroundImageFix"/><feGaussianBlur in="BackgroundImageFix" stdDeviation="7"/><feComposite in2="SourceAlpha" operator="in" result="effect1_backgroundBlur_1185_234"/><feBlend in="SourceGraphic" in2="effect1_backgroundBlur_1185_234" result="shape"/></filter><filter id="Q" width="93" height="92" x="80" y="247" color-interpolation-filters="sRGB" filterUnits="userSpaceOnUse"><feFlood flood-opacity="0" result="BackgroundImageFix"/><feColorMatrix in="SourceAlpha" result="hardAlpha" values="0 0 0 0 0 0 0 0 0 0 0 0 0 0 0 0 0 0 127 0"/><feOffset dy="4"/><feGaussianBlur stdDeviation="7"/><feComposite in2="hardAlpha" operator="out"/><feColorMatrix values="0 0 0 0 0 0 0 0 0 0 0 0 0 0 0 0 0 0 0.05 0"/><feBlend in2="BackgroundImageFix" result="effect1_dropShadow_1185_234"/><feBlend in="SourceGraphic" in2="effect1_dropShadow_1185_234" result="shape"/></filter></defs></svg>