<svg xmlns="http://www.w3.org/2000/svg" width="32" height="32" fill="none"><path fill="#C9FE58" fill-rule="evenodd" d="M16.006 1.54c.438 0 .837.248 1.031.64l4.058 8.222 9.073 1.318a1.15 1.15 0 0 1 .637 1.961l-6.565 6.4 1.55 9.037a1.15 1.15 0 0 1-1.67 1.212l-8.114-4.266L7.89 30.33a1.15 1.15 0 0 1-1.668-1.212l1.55-9.037-6.566-6.4a1.15 1.15 0 0 1 .637-1.961l9.072-1.318 4.059-8.222a1.15 1.15 0 0 1 1.03-.64zm0 3.747-3.295 6.675a1.15 1.15 0 0 1-.866.629l-7.364 1.07 5.33 5.194c.27.265.394.645.33 1.018L8.883 27.21l6.588-3.463a1.15 1.15 0 0 1 1.07 0l6.588 3.463-1.258-7.337a1.15 1.15 0 0 1 .33-1.018l5.33-5.194-7.365-1.07a1.15 1.15 0 0 1-.865-.63l-3.295-6.674z" clip-rule="evenodd"/></svg>