<svg xmlns="http://www.w3.org/2000/svg" width="32" height="32" fill="none"><g fill="#C9FE58" fill-rule="evenodd" clip-path="url(#a)" clip-rule="evenodd"><path d="M8.32 5.732c0-.635.515-1.15 1.15-1.15h13.067a1.15 1.15 0 0 1 0 2.3H9.47a1.15 1.15 0 0 1-1.15-1.15zm17.947 2.584c.635 0 1.15.515 1.15 1.15v8.33a1.15 1.15 0 0 1-2.3 0v-8.33c0-.635.515-1.15 1.15-1.15zM8.32 26.267c0-.635.515-1.15 1.15-1.15h13.067a1.15 1.15 0 0 1 0 2.3H9.47a1.15 1.15 0 0 1-1.15-1.15zM5.736 8.316c.635 0 1.15.515 1.15 1.15v8.33a1.15 1.15 0 0 1-2.3 0v-8.33c0-.635.515-1.15 1.15-1.15z"/><path d="M.852 3A2.15 2.15 0 0 1 3.002.85h5.466A2.15 2.15 0 0 1 10.618 3v5.466a2.15 2.15 0 0 1-2.15 2.15H3.002a2.15 2.15 0 0 1-2.15-2.15V3zm2.3.15v5.166h5.166V3.15H3.152zM21.383 3a2.15 2.15 0 0 1 2.15-2.15h5.466A2.15 2.15 0 0 1 31.15 3v5.466a2.15 2.15 0 0 1-2.15 2.15h-5.466a2.15 2.15 0 0 1-2.15-2.15V3zm2.3.15v5.166h5.166V3.15h-5.166zM.852 23.533a2.15 2.15 0 0 1 2.15-2.15h5.466a2.15 2.15 0 0 1 2.15 2.15v5.466a2.15 2.15 0 0 1-2.15 2.15H3.002A2.15 2.15 0 0 1 .852 29v-5.466zm2.3.15v5.166h5.166v-5.166H3.152zm18.231-.15a2.15 2.15 0 0 1 2.15-2.15h5.466a2.15 2.15 0 0 1 2.15 2.15v5.466A2.15 2.15 0 0 1 29 31.15h-5.466a2.15 2.15 0 0 1-2.15-2.15v-5.466zm2.3.15v5.166h5.166v-5.166h-5.166z"/></g><defs><clipPath id="a"><path fill="#fff" d="M0 0h32v32H0z"/></clipPath></defs></svg>