<svg xmlns="http://www.w3.org/2000/svg" width="32" height="32" fill="none"><path fill="#C9FE58" fill-rule="evenodd" d="M3.527 1.973a1.15 1.15 0 0 1 1.14 1.16l-.071 7.633 7.286-2.438a1.15 1.15 0 0 1 .73 2.181l-8.816 2.95a1.15 1.15 0 0 1-1.515-1.101l.085-9.246a1.15 1.15 0 0 1 1.16-1.14z" clip-rule="evenodd"/><path fill="#C9FE58" fill-rule="evenodd" d="M13.845 2.007a14.147 14.147 0 1 1 .26 28.024 1.15 1.15 0 1 1 .295-2.28 11.847 11.847 0 1 0-9.849-15.068 1.15 1.15 0 1 1-2.208-.644A14.148 14.148 0 0 1 13.845 2.007z" clip-rule="evenodd"/><path fill="#C9FE58" fill-rule="evenodd" d="M6.46 23.216a2.316 2.316 0 1 0 0 4.632 2.316 2.316 0 0 0 0-4.632zm-4.616 2.316a4.616 4.616 0 1 1 9.232 0 4.616 4.616 0 0 1-9.232 0z" clip-rule="evenodd"/></svg>