<svg xmlns="http://www.w3.org/2000/svg" width="32" height="32" fill="none"><path fill="#C9FE58" fill-rule="evenodd" d="M11.117 5.595a3.739 3.739 0 1 0 0 7.478 3.739 3.739 0 0 0 0-7.478zM5.078 9.334a6.039 6.039 0 1 1 12.078 0 6.039 6.039 0 0 1-12.078 0zm19.377-3.739a2.85 2.85 0 1 0 0 5.7 2.85 2.85 0 0 0 0-5.7zm-5.15 2.85a5.15 5.15 0 1 1 10.3 0 5.15 5.15 0 0 1-10.3 0zM3.767 21.026c1.975-1.692 4.62-2.62 7.348-2.62 2.728 0 5.373.928 7.348 2.62 1.824 1.564 2.948 3.675 3.114 5.947.073.997-.741 1.733-1.629 1.733H2.282c-.887 0-1.702-.736-1.629-1.733.166-2.272 1.29-4.383 3.114-5.947zm7.348-.32c-2.223 0-4.325.759-5.851 2.067-1.187 1.016-1.941 2.291-2.216 3.633h16.134c-.275-1.342-1.03-2.617-2.216-3.633-1.526-1.308-3.628-2.067-5.85-2.067zm13.386-2.666a4.85 4.85 0 0 0-2.557.716 1.15 1.15 0 1 1-1.212-1.954 7.15 7.15 0 0 1 3.773-1.062l-.002 1.15v-1.15h.002c1.797 0 3.535.665 4.83 1.871 1.296 1.209 2.041 2.866 2.041 4.613V23.5a1.65 1.65 0 0 1-1.65 1.65h-5.223a1.15 1.15 0 1 1 0-2.3h4.573v.65a.65.65 0 0 1 .65-.65h-.65v-.627c0-1.083-.46-2.139-1.31-2.93-.852-.795-2.025-1.254-3.263-1.254H24.5z" clip-rule="evenodd"/></svg>