<svg xmlns="http://www.w3.org/2000/svg" width="269" height="54" fill="none"><g fill="#fff" clip-path="url(#a)"><path d="m.125 36.14 19.107-8.025 10.998 6.018 2.222 19.743-13.553-.105 2-13.726-2.333-1.267-11.442 8.447L.125 36.14zm31.305-2.857 16.885 11.719 6.666-11.297-13.554-5.173v-2.534l13.554-5.28-6.666-11.19L31.43 21.246v12.036zm-1.2-12.985L32.452.555l-13.553.21 2 13.726-2.333 1.267L7.012 7.312.125 18.292l19.107 8.024 10.998-6.018zm69.973 4.549v18.497h7.294V19.771H96.875v5.076h3.328zm-.215-8.387c.669.66 1.687.99 3.055.99s2.37-.33 3.008-.99c.67-.689 1.003-1.549 1.003-2.581 0-1.061-.333-1.921-1.003-2.58-.638-.69-1.64-1.033-3.008-1.033s-2.386.344-3.055 1.032c-.638.66-.957 1.52-.957 2.581 0 1.032.32 1.892.957 2.581zM74.815 42.828c2.066.888 4.604 1.333 7.613 1.333 2.826 0 5.257-.416 7.294-1.248 2.037-.83 3.601-1.992 4.696-3.484 1.124-1.52 1.686-3.283 1.686-5.29 0-1.95-.53-3.6-1.595-4.948-1.034-1.376-2.476-2.451-4.331-3.225-1.854-.803-3.996-1.305-6.428-1.506l-2.553-.215c-1.52-.115-2.614-.502-3.282-1.162-.67-.659-1.003-1.433-1.003-2.322 0-.689.183-1.32.546-1.893.365-.602.912-1.075 1.642-1.42.76-.343 1.687-.516 2.78-.516 1.155 0 2.113.2 2.873.603.167.084.326.175.475.272l.036.023a3.971 3.971 0 0 1 1.267 1.296 3.9 3.9 0 0 1 .593 2.108h7.294c0-2.065-.502-3.857-1.504-5.377-1.003-1.548-2.447-2.739-4.331-3.57-1.855-.86-4.088-1.29-6.702-1.29-2.493 0-4.65.4-6.474 1.204-1.823.774-3.252 1.892-4.285 3.355-1.004 1.462-1.505 3.197-1.505 5.205 0 2.781.989 5.018 2.964 6.71 1.975 1.692 4.62 2.667 7.932 2.925l2.508.215c2.035.172 3.51.56 4.422 1.162.911.573 1.367 1.362 1.367 2.365 0 .462-.08.894-.24 1.298a3.51 3.51 0 0 1-.489.853c-.487.602-1.2 1.075-2.143 1.42-.942.344-2.112.516-3.51.516-1.55 0-2.811-.2-3.784-.603-.973-.43-1.702-.989-2.189-1.677a3.975 3.975 0 0 1-.683-2.237h-7.249c0 2.036.532 3.843 1.595 5.42 1.064 1.549 2.63 2.782 4.697 3.7zm48.967.816c-2.522 0-4.559-.287-6.108-.86-1.551-.603-2.69-1.592-3.42-2.969-.699-1.405-1.048-3.297-1.048-5.678v-9.334h-3.784V19.77h3.784v-6.366h6.792v6.366h7.295v5.033h-7.295v9.593c0 1.118.305 1.978.912 2.58.638.574 1.535.86 2.69.86h3.693v5.808h-3.511z"/><path fill-rule="evenodd" d="M136.059 43.132c1.641.688 3.525 1.032 5.653 1.032 2.096 0 3.951-.344 5.562-1.032 1.61-.689 2.948-1.65 4.011-2.882a9.709 9.709 0 0 0 2.143-4.216h-6.702c-.303.717-.881 1.32-1.732 1.806-.851.488-1.946.732-3.282.732-.829 0-1.569-.093-2.221-.277a5.106 5.106 0 0 1-1.335-.583c-.912-.574-1.581-1.377-2.006-2.409a7.943 7.943 0 0 1-.304-.922 9.221 9.221 0 0 1-.21-1.014h18.248v-2.323c0-2.15-.487-4.13-1.459-5.936-.973-1.835-2.386-3.312-4.239-4.43-1.824-1.147-4.074-1.721-6.748-1.721-2.037 0-3.86.344-5.471 1.032-1.579.66-2.902 1.563-3.966 2.71a12.432 12.432 0 0 0-2.462 3.915 12.56 12.56 0 0 0-.82 4.516v.86c0 1.52.273 3.012.82 4.474a13.112 13.112 0 0 0 2.462 3.915c1.094 1.147 2.446 2.064 4.058 2.753zm-.297-14.018a7.097 7.097 0 0 1 .434-1.339c.455-1.06 1.124-1.864 2.005-2.409.33-.203.687-.369 1.07-.496.645-.214 1.368-.32 2.167-.32 1.247 0 2.279.272 3.1.816.851.517 1.489 1.276 1.915 2.28a6.35 6.35 0 0 1 .239.656c.064.209.121.424.171.647.036.164.067.332.094.504h-11.265c.021-.115.044-.228.07-.34z" clip-rule="evenodd"/><path d="M156.898 43.349V19.776h5.791v5.937c.078-.353.168-.692.268-1.017.086-.273.177-.537.278-.79.639-1.607 1.596-2.81 2.872-3.614 1.277-.832 2.842-1.247 4.696-1.247h.319c1.885 0 3.45.415 4.696 1.247 1.276.803 2.234 2.007 2.872 3.613l.05.122.043.11.089-.232c.669-1.606 1.642-2.81 2.918-3.613 1.277-.832 2.842-1.247 4.696-1.247h.319c1.884 0 3.464.415 4.741 1.247 1.307.803 2.295 2.007 2.963 3.613.669 1.607 1.004 3.614 1.004 6.023v13.42h-7.295V29.542c0-1.291-.364-2.338-1.094-3.14-.699-.804-1.702-1.205-3.008-1.205-1.308 0-2.341.416-3.101 1.247-.759.803-1.14 1.879-1.14 3.227V43.35h-7.34V29.54c0-1.291-.364-2.338-1.094-3.14-.699-.804-1.687-1.205-2.962-1.205-1.338 0-2.387.416-3.146 1.247-.76.803-1.141 1.879-1.141 3.227v13.679h-7.294z"/><path fill-rule="evenodd" d="M214.997 38.802v4.543h5.789V28.89c0-2.18-.456-3.957-1.368-5.334-.911-1.405-2.248-2.452-4.011-3.14-1.732-.688-3.875-1.032-6.428-1.032a91.631 91.631 0 0 0-2.827.043 90.164 90.164 0 0 0-2.917.129l-.72.046a122.6 122.6 0 0 0-1.742.126v5.807a275.448 275.448 0 0 1 4.106-.217 139.323 139.323 0 0 1 5.057-.127c1.338 0 2.31.3 2.918.903.608.602.911 1.506.911 2.71v.086h-4.513c-2.218 0-4.178.273-5.881.818-1.702.516-3.024 1.333-3.965 2.451-.943 1.09-1.414 2.495-1.414 4.216 0 1.577.38 2.94 1.14 4.087.759 1.117 1.808 1.978 3.145 2.58 1.368.602 2.949.904 4.741.904 1.733 0 3.192-.302 4.378-.904 1.215-.602 2.157-1.462 2.826-2.58.117-.19.227-.385.33-.588a8.23 8.23 0 0 0 .387-.906l.058-.167zm-1.232-4.19V32.72h-4.559c-1.276 0-2.263.3-2.962.903-.669.574-1.004 1.362-1.004 2.366 0 .472.084.901.25 1.289.168.388.419.732.754 1.033.699.574 1.686.86 2.962.86.244 0 .479-.01.705-.033.186-.018.366-.044.54-.078.334-.064.649-.156.945-.276.668-.286 1.215-.759 1.64-1.42.426-.658.669-1.576.729-2.752z" clip-rule="evenodd"/><path d="M225.156 43.346V19.774h5.79v7.78c.277-2.22.977-4.012 2.098-5.371 1.519-1.807 3.707-2.71 6.565-2.71h.957v5.936h-1.824c-2.005 0-3.556.516-4.65 1.548-1.094 1.004-1.642 2.466-1.642 4.388v12.001h-7.294zm24.661-11.013h2.417l7.886 11.012h8.206l-10-13.524 8.222-10.049h-7.658l-9.073 11.208V11.943h-7.294v31.402h7.294V32.333z"/></g><defs><clipPath id="a"><path fill="#fff" d="M0 0h269v54H0z"/></clipPath></defs></svg>