<svg xmlns="http://www.w3.org/2000/svg" width="22" height="22" fill="none"><path fill="#1A1A1A" d="M11 2.801c2.67 0 2.986.011 4.041.059a5.524 5.524 0 0 1 1.857.345c.434.16.827.417 1.15.75.333.322.589.715.75 1.15.22.594.337 1.222.345 1.856.047 1.055.058 1.375.058 4.041 0 2.667-.011 2.987-.059 4.042a5.523 5.523 0 0 1-.345 1.856 3.305 3.305 0 0 1-1.897 1.898 5.523 5.523 0 0 1-1.856.345c-1.055.047-1.375.058-4.042.058-2.666 0-2.986-.011-4.04-.059a5.523 5.523 0 0 1-1.857-.345 3.09 3.09 0 0 1-1.15-.75 3.09 3.09 0 0 1-.75-1.15 5.524 5.524 0 0 1-.345-1.856c-.047-1.055-.059-1.375-.059-4.041 0-2.666.011-2.986.059-4.041a5.524 5.524 0 0 1 .345-1.856 3.09 3.09 0 0 1 .75-1.15 3.09 3.09 0 0 1 1.15-.75 5.524 5.524 0 0 1 1.856-.345c1.055-.048 1.375-.06 4.041-.06M11 1c-2.716 0-3.056.011-4.125.06a7.335 7.335 0 0 0-2.425.465 4.885 4.885 0 0 0-1.771 1.154A4.874 4.874 0 0 0 1.525 4.45a7.335 7.335 0 0 0-.465 2.425C1.011 7.944 1 8.284 1 11s.011 3.056.06 4.125c.017.829.174 1.649.465 2.425.25.668.645 1.272 1.154 1.771.499.51 1.103.903 1.771 1.154a7.336 7.336 0 0 0 2.428.465c1.066.049 1.406.06 4.122.06s3.056-.011 4.125-.06a7.336 7.336 0 0 0 2.427-.465 5.116 5.116 0 0 0 2.925-2.925 7.336 7.336 0 0 0 .465-2.428c.05-1.066.06-1.406.06-4.124 0-2.72-.01-3.057-.06-4.125a7.334 7.334 0 0 0-.467-2.423 4.884 4.884 0 0 0-1.154-1.771 4.885 4.885 0 0 0-1.771-1.154 7.335 7.335 0 0 0-2.425-.465C14.056 1.011 13.716 1 11 1z"/><path fill="#1A1A1A" d="M11.002 5.865a5.135 5.135 0 1 0 0 10.27 5.135 5.135 0 0 0 0-10.27zm0 8.469a3.333 3.333 0 1 1 0-6.666 3.333 3.333 0 0 1 0 6.666zm5.338-7.472a1.2 1.2 0 1 0 0-2.4 1.2 1.2 0 0 0 0 2.4z"/></svg>