<svg xmlns="http://www.w3.org/2000/svg" width="22" height="22" fill="none"><path fill="#1A1A1A" d="M20.167 1H1.833A.836.836 0 0 0 1 1.833v18.334c0 .458.375.833.833.833h18.334a.836.836 0 0 0 .833-.833V1.833A.836.836 0 0 0 20.167 1zM6.917 18.042H3.958V8.5h2.959v9.542zM5.458 7.208A1.69 1.69 0 0 1 3.75 5.5c0-.958.75-1.708 1.708-1.708.959 0 1.709.75 1.709 1.708 0 .917-.75 1.708-1.709 1.708zm12.584 10.834h-2.959v-4.625c0-1.125 0-2.542-1.541-2.542-1.542 0-1.792 1.208-1.792 2.458v4.709H8.792V8.5h2.833v1.292h.042c.375-.75 1.375-1.542 2.791-1.542 3 0 3.542 1.958 3.542 4.542v5.25h.042z"/></svg>