<svg xmlns="http://www.w3.org/2000/svg" width="108" height="30" fill="none"><path fill="#1A1A1A" d="M.8 29V.348h.038l14.896 21.09-1.9-.418L28.654.348h.076V29h-4.408V10.342l.304 2.28-9.994 14.136h-.076L4.334 12.622l.76-2.09V29H.8zm40.404.418c-1.52 0-2.901-.317-4.142-.95-1.216-.633-2.179-1.57-2.888-2.812-.71-1.267-1.064-2.825-1.064-4.674 0-1.824.367-3.382 1.102-4.674.76-1.317 1.748-2.33 2.964-3.04a7.983 7.983 0 0 1 4.028-1.064c1.545 0 2.786.304 3.724.912.962.608 1.71 1.33 2.242 2.166l-.228.608.418-2.964h3.914V29h-4.256v-3.914l.418 1.026a9.524 9.524 0 0 1-.608.76c-.304.33-.722.697-1.254 1.102a7.51 7.51 0 0 1-1.9 1.026c-.71.279-1.533.418-2.47.418zm1.178-3.496c.76 0 1.444-.14 2.052-.418a4.375 4.375 0 0 0 1.596-1.178 4.551 4.551 0 0 0 .988-1.824v-3.496a4.277 4.277 0 0 0-.988-1.71 4.657 4.657 0 0 0-1.672-1.178c-.634-.279-1.343-.418-2.128-.418a4.65 4.65 0 0 0-2.394.646 5.026 5.026 0 0 0-1.786 1.786c-.431.76-.646 1.634-.646 2.622 0 .963.228 1.837.684 2.622a5.143 5.143 0 0 0 1.824 1.862c.76.456 1.583.684 2.47.684zm17.607-12.996.38 4.56-.152-.646a7.485 7.485 0 0 1 1.862-2.47c.81-.71 1.634-1.241 2.47-1.596.836-.38 1.52-.57 2.052-.57l-.19 4.256c-1.216-.101-2.28.127-3.192.684a5.804 5.804 0 0 0-2.09 2.128 5.81 5.81 0 0 0-.722 2.812V29H56.15V12.926h3.838zm14.794 16.416a9.616 9.616 0 0 1-3.496-.646 7.336 7.336 0 0 1-2.774-1.9l1.824-2.394c.71.684 1.406 1.19 2.09 1.52.71.304 1.38.456 2.014.456.482 0 .912-.05 1.292-.152.406-.127.722-.317.95-.57.254-.253.38-.595.38-1.026 0-.507-.177-.9-.532-1.178-.354-.304-.81-.545-1.368-.722a28.286 28.286 0 0 0-1.748-.57c-1.393-.43-2.432-1.064-3.116-1.9a4.43 4.43 0 0 1-1.026-2.888c0-.836.216-1.634.646-2.394.43-.785 1.09-1.431 1.976-1.938.887-.507 2.002-.76 3.344-.76 1.216 0 2.268.14 3.154.418.912.253 1.76.697 2.546 1.33l-1.634 2.546c-.456-.43-1-.76-1.634-.988-.608-.253-1.165-.393-1.672-.418-.456-.025-.861.038-1.216.19a2.102 2.102 0 0 0-.874.57 1.36 1.36 0 0 0-.304.874c-.025.507.14.912.494 1.216.38.304.862.545 1.444.722.583.177 1.166.367 1.748.57a7.521 7.521 0 0 1 2.09.95 4.35 4.35 0 0 1 1.406 1.482c.355.557.532 1.254.532 2.09 0 .963-.24 1.875-.722 2.736-.481.836-1.203 1.507-2.166 2.014-.962.507-2.178.76-3.648.76zm8.913-8.55c0-1.621.38-3.078 1.14-4.37a7.947 7.947 0 0 1 3.192-3.078c1.393-.76 2.964-1.14 4.712-1.14 1.798 0 3.356.38 4.674 1.14a7.758 7.758 0 0 1 3.116 3.078c.734 1.292 1.102 2.749 1.102 4.37s-.368 3.09-1.102 4.408c-.735 1.292-1.774 2.318-3.116 3.078-1.318.76-2.888 1.14-4.712 1.14-1.723 0-3.268-.342-4.636-1.026a8.025 8.025 0 0 1-3.23-3.002c-.76-1.292-1.14-2.825-1.14-4.598zm4.294.038c0 .937.202 1.799.608 2.584.405.76.962 1.368 1.672 1.824a4.265 4.265 0 0 0 2.356.684c.937 0 1.748-.228 2.432-.684a4.545 4.545 0 0 0 1.634-1.824 5.55 5.55 0 0 0 .608-2.584c0-.963-.203-1.824-.608-2.584a4.489 4.489 0 0 0-1.634-1.862c-.684-.456-1.495-.684-2.432-.684a4.16 4.16 0 0 0-2.394.722 4.947 4.947 0 0 0-1.634 1.824c-.406.76-.608 1.621-.608 2.584zm15.176 5.852c0-.659.24-1.203.722-1.634.481-.456 1.013-.684 1.596-.684.532 0 1.038.228 1.52.684.481.43.722.975.722 1.634 0 .71-.241 1.28-.722 1.71-.482.405-.988.608-1.52.608-.583 0-1.115-.203-1.596-.608-.482-.43-.722-1-.722-1.71z"/></svg>