<svg xmlns="http://www.w3.org/2000/svg" width="340" height="290" fill="none"><path fill="#1B1B1B" fill-opacity=".07" fill-rule="evenodd" d="M317.036 3.51H196.255c-10.284 0-18.62 8.336-18.62 18.62v246.595c0 10.284 8.336 18.621 18.62 18.621h120.781c10.284 0 18.621-8.337 18.621-18.621V22.13c0-10.284-8.337-18.62-18.621-18.62zM196.255 2c-11.117 0-20.13 9.013-20.13 20.13v246.595c0 11.118 9.013 20.13 20.13 20.13h120.781c11.118 0 20.131-9.012 20.131-20.13V22.13c0-11.117-9.013-20.13-20.131-20.13H196.255z" clip-rule="evenodd"/><rect width="26.169" height="7.046" x="220.414" y="122.277" fill="#1B1B1B" fill-opacity=".07" rx="3.523"/><rect width="39.254" height="7.046" x="220.414" y="144.422" fill="#1B1B1B" fill-opacity=".07" rx="3.523"/><rect width="26.169" height="7.046" x="220.414" y="166.564" fill="#1B1B1B" fill-opacity=".07" rx="3.523"/><rect width="39.254" height="7.046" x="220.414" y="188.707" fill="#1B1B1B" fill-opacity=".07" rx="3.523"/><circle cx="207.327" cy="125.799" r="7.046" fill="#1B1B1B"/><g clip-path="url(#a)"><path stroke="#fff" stroke-linecap="round" stroke-linejoin="round" stroke-width="1.2" d="m205.445 126.01 1.258 1.258 2.743-2.676"/></g><circle cx="207.327" cy="147.946" r="7.046" fill="#1B1B1B"/><g clip-path="url(#b)"><path stroke="#fff" stroke-linecap="round" stroke-linejoin="round" stroke-width="1.2" d="m205.445 148.156 1.258 1.258 2.743-2.676"/></g><circle cx="207.327" cy="170.089" r="7.046" fill="#1B1B1B"/><g clip-path="url(#c)"><path stroke="#fff" stroke-linecap="round" stroke-linejoin="round" stroke-width="1.2" d="m205.445 170.299 1.258 1.258 2.743-2.676"/></g><circle cx="207.327" cy="192.231" r="7.046" fill="#1B1B1B"/><g clip-path="url(#d)"><path stroke="#fff" stroke-linecap="round" stroke-linejoin="round" stroke-width="1.2" d="m205.445 192.441 1.258 1.259 2.743-2.677"/></g><path fill="#1B1B1B" d="M243.883 51.598c-1.664 0-3-.456-4.006-1.369-1.007-.926-1.51-2.321-1.51-4.187V42.5c0-1.811.503-3.187 1.51-4.126 1.006-.953 2.342-1.43 4.006-1.43 1.677 0 3.013.477 4.006 1.43 1.006.939 1.51 2.315 1.51 4.126v3.543c0 1.866-.504 3.261-1.51 4.187-.993.913-2.329 1.37-4.006 1.37zm0-2.295c1.006 0 1.744-.275 2.214-.825.483-.55.725-1.335.725-2.355v-3.744c0-1.034-.269-1.812-.805-2.336-.524-.536-1.235-.805-2.134-.805-.926 0-1.651.275-2.174.825-.51.55-.765 1.322-.765 2.316v3.744c0 1.06.241 1.858.725 2.395.496.524 1.234.785 2.214.785zm-12.494 2.299c-1.1 0-2.053-.195-2.858-.584-.792-.39-1.403-.94-1.832-1.651-.43-.711-.644-1.537-.644-2.476v-.201h2.617v.18c0 .672.221 1.249.664 1.732.456.47 1.127.705 2.013.705.886 0 1.563-.235 2.033-.705.483-.483.725-1.107.725-1.872v-.201c0-.752-.242-1.35-.725-1.792-.47-.443-1.06-.664-1.771-.664-.39 0-.712.053-.967.16a1.928 1.928 0 0 0-.624.403 3.175 3.175 0 0 0-.402.484h-3.12v-7.892h9.622v2.336h-7.046v3.442h.363c.134-.175.315-.342.543-.503.228-.161.523-.296.886-.403a4.564 4.564 0 0 1 1.288-.161c.832 0 1.59.174 2.275.523a3.937 3.937 0 0 1 1.63 1.55c.416.671.624 1.504.624 2.496v.242c0 .993-.214 1.852-.644 2.577-.416.724-1.02 1.288-1.811 1.69-.792.39-1.738.584-2.839.584zm-11.449-.282v-2.86h-6.924v-2.98l4.871-8.253h4.63v8.938h2.335v2.295h-2.335v2.859h-2.577zm-4.468-5.154h4.468V38.88h-.362l-4.106 6.965v.322zm-8.967 5.434c-1.087 0-2.047-.194-2.879-.583-.832-.39-1.483-.946-1.953-1.67-.469-.726-.704-1.598-.704-2.618v-.563h2.617v.563c0 .846.261 1.483.785 1.913.523.415 1.234.623 2.134.623.912 0 1.59-.18 2.033-.543.456-.362.684-.825.684-1.389 0-.39-.107-.704-.322-.946-.215-.242-.53-.436-.946-.584a10.77 10.77 0 0 0-1.53-.443l-.463-.1c-.966-.215-1.798-.483-2.496-.806-.685-.335-1.215-.771-1.59-1.308-.363-.537-.544-1.235-.544-2.094 0-.858.201-1.59.604-2.194.416-.617.993-1.087 1.731-1.409.752-.335 1.631-.503 2.637-.503 1.007 0 1.899.174 2.678.523.791.336 1.409.846 1.852 1.53.456.671.684 1.517.684 2.536v.605H208.9v-.605c0-.536-.107-.966-.322-1.288a1.7 1.7 0 0 0-.886-.724c-.389-.162-.852-.242-1.389-.242-.805 0-1.402.154-1.791.463-.376.295-.564.705-.564 1.228 0 .349.087.644.262.886.188.241.463.443.825.604.362.16.825.301 1.389.422l.463.1c1.007.216 1.879.49 2.617.826.738.336 1.308.779 1.711 1.329.416.55.624 1.255.624 2.113 0 .86-.221 1.618-.664 2.275-.43.644-1.047 1.154-1.852 1.53-.792.362-1.731.544-2.818.544zm-1.228 2.054V34.893h2.415v18.76h-2.415z"/><path fill="#1B1B1B" fill-opacity=".07" fill-rule="evenodd" d="M142.911 3.51H22.131C11.845 3.51 3.51 11.846 3.51 22.13v170.1c0 10.284 8.336 18.621 18.62 18.621h120.781c10.284 0 18.621-8.337 18.621-18.621V22.13c0-10.284-8.337-18.62-18.621-18.62zM22.131 2C11.012 2 2 11.013 2 22.13v170.1c0 11.118 9.013 20.131 20.13 20.131h120.781c11.118 0 20.131-9.013 20.131-20.131V22.13c0-11.117-9.013-20.13-20.131-20.13H22.131z" clip-rule="evenodd"/><rect width="112.729" height="40.26" x="26.148" y="147.945" fill="#1B1B1B" rx="13"/><path fill="#fff" d="M108.098 172.269c-.604 0-1.132-.125-1.583-.374a2.785 2.785 0 0 1-1.062-1.075c-.25-.467-.375-1.007-.375-1.619v-.145c0-.62.125-1.159.375-1.618a2.618 2.618 0 0 1 1.038-1.075c.451-.258.971-.386 1.558-.386.572 0 1.071.128 1.498.386.435.25.773.6 1.015 1.051.241.451.362.978.362 1.582v.471h-4.578c.016.524.19.942.52 1.256.338.306.757.459 1.256.459.467 0 .817-.104 1.051-.314.241-.209.426-.451.555-.724l1.027.531a3.525 3.525 0 0 1-.495.713c-.21.249-.488.459-.834.628-.346.169-.789.253-1.328.253zm-1.74-3.756h3.298c-.032-.451-.194-.801-.483-1.051-.29-.257-.669-.386-1.136-.386-.467 0-.849.129-1.147.386-.29.25-.467.6-.532 1.051zm-5.088 3.755c-.579 0-1.026-.104-1.34-.314a2.27 2.27 0 0 1-.689-.7h-.193v.845h-1.22v-8.454h1.244v3.309h.193c.097-.161.226-.314.387-.459.161-.153.374-.278.64-.374.266-.097.592-.145.978-.145a2.636 2.636 0 0 1 2.38 1.413c.249.459.374 1.006.374 1.642v.182c0 .644-.129 1.195-.386 1.654a2.655 2.655 0 0 1-2.368 1.401zm-.362-1.087c.54 0 .982-.173 1.329-.519.354-.346.531-.842.531-1.486v-.108c0-.637-.173-1.128-.519-1.474-.347-.346-.793-.519-1.341-.519-.531 0-.974.173-1.329.519-.346.346-.519.837-.519 1.474v.108c0 .644.173 1.14.52 1.486.354.346.797.519 1.328.519zm-5.975.918v-5.954h1.244v5.954h-1.244zm.628-6.764a.885.885 0 0 1-.616-.229.833.833 0 0 1-.242-.616c0-.25.08-.451.242-.604a.86.86 0 0 1 .616-.241c.25 0 .455.08.616.241a.794.794 0 0 1 .241.604c0 .25-.08.455-.241.616a.858.858 0 0 1-.616.229zm-5.084 6.765v-5.955h1.22v.701h.193a1 1 0 0 1 .459-.544c.217-.121.483-.181.797-.181h.712v1.123h-.76c-.403 0-.733.113-.99.339-.259.217-.387.555-.387 1.014v3.503h-1.244zm-4.179.169a3.347 3.347 0 0 1-1.558-.362 2.759 2.759 0 0 1-1.1-1.051c-.265-.459-.398-1.01-.398-1.655v-.157c0-.644.133-1.191.399-1.642.273-.459.64-.809 1.099-1.051.467-.25.986-.374 1.558-.374.572 0 1.059.104 1.461.314.403.209.725.487.967.833.25.346.41.729.483 1.147l-1.208.254a1.995 1.995 0 0 0-.254-.725 1.41 1.41 0 0 0-.543-.519c-.234-.129-.528-.193-.882-.193-.346 0-.66.08-.942.241a1.653 1.653 0 0 0-.652.677c-.161.29-.242.644-.242 1.063v.108c0 .419.08.777.242 1.075.16.298.378.524.652.677.282.153.596.229.942.229.523 0 .922-.133 1.196-.398.274-.274.447-.621.52-1.039l1.207.278c-.097.41-.27.789-.52 1.135a2.636 2.636 0 0 1-.966.833c-.402.202-.89.302-1.461.302zm-6.48 0c-.757 0-1.385-.169-1.884-.507-.5-.338-.806-.85-.918-1.534l1.16-.278c.064.33.172.592.325.785.153.194.342.33.568.411.233.081.483.121.749.121.394 0 .696-.077.906-.23.217-.153.326-.35.326-.592 0-.241-.1-.418-.302-.531-.202-.113-.5-.205-.894-.278l-.41-.072a5.358 5.358 0 0 1-1.1-.314 1.922 1.922 0 0 1-.785-.568c-.193-.241-.29-.552-.29-.93 0-.564.21-.998.628-1.304.419-.314.975-.471 1.667-.471.668 0 1.216.153 1.643.459.434.297.716.704.845 1.219l-1.16.327c-.072-.363-.225-.616-.458-.761-.234-.153-.524-.23-.87-.23-.338 0-.604.065-.797.193a.578.578 0 0 0-.29.52c0 .241.093.418.278.531.193.113.45.197.773.254l.423.072c.426.073.817.173 1.171.302.355.129.632.314.834.556.209.241.314.563.314.966 0 .596-.222 1.059-.665 1.389-.443.33-1.038.495-1.787.495zm-6.532-.001c-.58 0-1.027-.104-1.34-.314a2.272 2.272 0 0 1-.69-.7h-.192v.845h-1.22v-8.454h1.244v3.309h.193c.097-.161.225-.314.386-.459a1.81 1.81 0 0 1 .64-.374c.266-.097.593-.145.979-.145a2.634 2.634 0 0 1 2.38 1.413c.249.459.374 1.006.374 1.642v.182c0 .644-.129 1.195-.387 1.654a2.653 2.653 0 0 1-2.367 1.401zm-.362-1.087c.54 0 .982-.173 1.328-.519.355-.346.532-.842.532-1.486v-.108c0-.637-.173-1.128-.52-1.474-.346-.346-.793-.519-1.34-.519-.532 0-.975.173-1.329.519-.346.346-.52.837-.52 1.474v.108c0 .644.174 1.14.52 1.486.354.346.797.519 1.329.519zm-8.011 1.027c-.45 0-.853-.101-1.207-.302a2.139 2.139 0 0 1-.834-.858c-.201-.37-.302-.813-.302-1.328v-3.575h1.244v3.49c0 .515.13.898.387 1.148.258.241.616.362 1.075.362.507 0 .914-.169 1.22-.507.314-.347.47-.842.47-1.486v-3.007h1.245v5.954h-1.22v-.894h-.193c-.113.242-.314.471-.604.689-.29.209-.717.314-1.28.314zm-6.605.059c-.636 0-1.2-.112-1.691-.338a2.677 2.677 0 0 1-1.16-.99c-.273-.443-.41-.978-.41-1.606v-.302h1.292v.302c0 .595.177 1.042.532 1.34.362.298.841.447 1.437.447.604 0 1.059-.125 1.365-.374.306-.258.459-.588.459-.991 0-.265-.073-.483-.218-.652a1.443 1.443 0 0 0-.616-.399 7.227 7.227 0 0 0-.954-.289l-.447-.109a7.664 7.664 0 0 1-1.413-.471 2.334 2.334 0 0 1-.918-.761c-.217-.314-.326-.717-.326-1.208 0-.499.12-.926.362-1.28a2.44 2.44 0 0 1 1.027-.822c.435-.193.946-.289 1.534-.289.588 0 1.111.1 1.57.302a2.47 2.47 0 0 1 1.1.893c.265.395.398.89.398 1.486v.435h-1.293v-.435c0-.362-.076-.656-.229-.882a1.261 1.261 0 0 0-.616-.495 2.521 2.521 0 0 0-.93-.157c-.515 0-.918.109-1.208.326-.282.209-.422.503-.422.882 0 .258.06.471.18.64.13.161.315.294.556.399.242.104.544.197.906.277l.447.109c.547.121 1.03.278 1.45.471.418.185.748.439.99.761.241.322.362.737.362 1.244s-.129.95-.386 1.329c-.25.378-.608.676-1.075.893-.467.21-1.019.314-1.655.314z"/><path fill="#1B1B1B" d="M68.906 51.598c-1.664 0-3-.456-4.006-1.369-1.006-.926-1.51-2.321-1.51-4.187V42.5c0-1.811.504-3.187 1.51-4.126 1.007-.953 2.342-1.43 4.006-1.43 1.678 0 3.013.477 4.006 1.43 1.007.939 1.51 2.315 1.51 4.126v3.543c0 1.866-.503 3.261-1.51 4.187-.993.913-2.328 1.37-4.006 1.37zm0-2.295c1.007 0 1.745-.275 2.215-.825.483-.55.724-1.335.724-2.355v-3.744c0-1.034-.268-1.812-.805-2.336-.523-.536-1.235-.805-2.134-.805-.926 0-1.65.275-2.174.825-.51.55-.765 1.322-.765 2.316v3.744c0 1.06.242 1.858.725 2.395.497.524 1.235.785 2.214.785zM56.42 51.602c-1.1 0-2.053-.195-2.858-.584-.792-.39-1.402-.94-1.832-1.651-.43-.711-.644-1.537-.644-2.476v-.201h2.617v.18c0 .672.221 1.249.664 1.732.456.47 1.128.705 2.013.705.886 0 1.564-.235 2.033-.705.484-.483.725-1.107.725-1.872v-.201c0-.752-.241-1.35-.725-1.792-.47-.443-1.06-.664-1.771-.664-.39 0-.711.053-.966.16a1.928 1.928 0 0 0-.624.403 3.192 3.192 0 0 0-.403.484h-3.12v-7.892h9.622v2.336h-7.046v3.442h.363c.134-.175.315-.342.543-.503a3.02 3.02 0 0 1 .886-.403 4.565 4.565 0 0 1 1.288-.161c.832 0 1.59.174 2.275.523a3.94 3.94 0 0 1 1.63 1.55c.417.671.625 1.504.625 2.496v.242c0 .993-.215 1.852-.645 2.577-.416.724-1.02 1.288-1.811 1.69-.792.39-1.738.584-2.839.584zm-17.21-.286v-1.69c0-.98.162-1.792.484-2.436a4.13 4.13 0 0 1 1.389-1.61c.617-.43 1.369-.78 2.255-1.048l1.348-.422a4.906 4.906 0 0 0 1.248-.584c.336-.242.59-.53.765-.866.188-.335.282-.718.282-1.147v-.08c0-.672-.228-1.202-.684-1.59-.456-.404-1.08-.605-1.872-.605-.779 0-1.41.215-1.893.644-.47.416-.704 1.02-.704 1.812v.362H39.25v-.322c0-1.02.228-1.885.685-2.596a4.455 4.455 0 0 1 1.852-1.631c.791-.376 1.67-.564 2.637-.564.966 0 1.838.188 2.617.564.778.362 1.389.879 1.831 1.55.457.658.685 1.436.685 2.335v.201c0 .9-.188 1.664-.564 2.295a4.506 4.506 0 0 1-1.49 1.53 9.61 9.61 0 0 1-2.153.966l-1.289.403c-.577.175-1.026.37-1.348.584-.322.201-.55.43-.685.684-.12.242-.181.537-.181.886v.08h7.59v2.295H39.21zm-6.83.284c-1.088 0-2.047-.194-2.88-.583-.831-.39-1.482-.946-1.952-1.67-.47-.726-.704-1.598-.704-2.618v-.563h2.617v.563c0 .846.261 1.483.785 1.913.523.415 1.234.623 2.134.623.912 0 1.59-.18 2.033-.543.456-.362.684-.825.684-1.389 0-.39-.107-.704-.322-.946-.215-.242-.53-.436-.946-.584a10.771 10.771 0 0 0-1.53-.443l-.463-.1c-.966-.215-1.798-.483-2.496-.806-.684-.335-1.215-.771-1.59-1.308-.363-.537-.544-1.235-.544-2.094 0-.858.201-1.59.604-2.194.416-.617.993-1.087 1.731-1.409.752-.335 1.63-.503 2.637-.503 1.007 0 1.9.174 2.678.523.791.336 1.409.846 1.852 1.53.456.671.684 1.517.684 2.536v.605h-2.617v-.605c0-.536-.107-.966-.322-1.288a1.7 1.7 0 0 0-.886-.724c-.389-.162-.852-.242-1.389-.242-.805 0-1.402.154-1.791.463-.376.295-.564.705-.564 1.228 0 .349.087.644.262.886.188.241.463.443.825.604.362.16.825.301 1.389.422l.463.1c1.007.216 1.879.49 2.617.826.738.336 1.308.779 1.711 1.329.416.55.624 1.255.624 2.113 0 .86-.221 1.618-.664 2.275-.43.644-1.047 1.154-1.852 1.53-.792.362-1.731.544-2.818.544zm-1.228 2.054V34.893h2.415v18.76h-2.415z"/><rect width="113.736" height="7.046" x="26.148" y="70.443" fill="#1B1B1B" fill-opacity=".07" rx="3.523"/><rect width="66.43" height="7.046" x="26.148" y="87.553" fill="#1B1B1B" fill-opacity=".07" rx="3.523"/><rect width="26.169" height="7.046" x="46.289" y="116.24" fill="#1B1B1B" fill-opacity=".07" rx="3.523"/><rect width="112.729" height="40.26" x="200.281" y="224.439" fill="#1B1B1B" rx="13"/><rect width="112.729" height="7.046" x="200.281" y="70.443" fill="#1B1B1B" fill-opacity=".07" rx="3.523"/><rect width="80.521" height="7.046" x="200.281" y="87.553" fill="#1B1B1B" fill-opacity=".07" rx="3.523"/><circle cx="33.21" cy="119.762" r="7.046" fill="#1B1B1B"/><g clip-path="url(#e)"><path stroke="#fff" stroke-linecap="round" stroke-linejoin="round" stroke-width="1.2" d="m31.328 119.973 1.258 1.258 2.743-2.676"/></g><path fill="#fff" d="M282.223 248.763c-.604 0-1.132-.124-1.583-.374a2.785 2.785 0 0 1-1.062-1.075c-.25-.467-.375-1.006-.375-1.618v-.145c0-.62.125-1.16.375-1.619a2.618 2.618 0 0 1 1.038-1.075c.451-.257.971-.386 1.558-.386.572 0 1.071.129 1.498.386.435.25.773.6 1.015 1.051.241.451.362.978.362 1.582v.471h-4.578c.016.524.19.942.52 1.256.338.306.757.459 1.256.459.467 0 .817-.104 1.051-.314.241-.209.426-.451.555-.724l1.027.531a3.498 3.498 0 0 1-.495.713c-.21.249-.488.459-.834.628-.346.169-.789.253-1.328.253zm-1.74-3.756h3.298c-.032-.451-.194-.801-.483-1.051-.29-.257-.669-.386-1.136-.386-.467 0-.849.129-1.147.386-.29.25-.467.6-.532 1.051zm-5.088 3.755c-.579 0-1.026-.104-1.34-.314a2.262 2.262 0 0 1-.689-.7h-.193v.845h-1.22v-8.454h1.244v3.309h.193c.097-.161.226-.314.387-.459.161-.153.374-.278.64-.374.266-.097.592-.145.978-.145a2.636 2.636 0 0 1 2.38 1.413c.249.459.374 1.006.374 1.643v.181c0 .644-.129 1.195-.386 1.654-.25.451-.584.798-1.003 1.039-.41.242-.865.362-1.365.362zm-.362-1.087c.54 0 .982-.173 1.329-.519.354-.346.531-.841.531-1.486v-.108c0-.636-.173-1.128-.519-1.474-.347-.346-.793-.519-1.341-.519-.531 0-.974.173-1.329.519-.346.346-.519.838-.519 1.474v.108c0 .645.173 1.14.519 1.486.355.346.798.519 1.329.519zm-5.975.918v-5.954h1.244v5.954h-1.244zm.628-6.763a.885.885 0 0 1-.616-.23.834.834 0 0 1-.242-.616c0-.249.081-.451.242-.604a.86.86 0 0 1 .616-.241c.249 0 .455.08.616.241a.795.795 0 0 1 .241.604c0 .25-.08.455-.241.616a.86.86 0 0 1-.616.23zm-5.084 6.764v-5.955h1.219v.701h.194a.994.994 0 0 1 .459-.544c.217-.12.483-.181.797-.181h.712v1.124h-.76c-.403 0-.733.112-.991.338-.258.217-.386.555-.386 1.014v3.503h-1.244zm-4.179.169c-.572 0-1.091-.12-1.558-.362a2.754 2.754 0 0 1-1.099-1.051c-.266-.459-.399-1.01-.399-1.654v-.157c0-.645.133-1.192.399-1.643a2.76 2.76 0 0 1 1.099-1.051 3.258 3.258 0 0 1 1.558-.374c.572 0 1.059.104 1.461.314.403.209.725.487.967.833.249.346.41.729.483 1.148l-1.208.253a1.977 1.977 0 0 0-.254-.724 1.409 1.409 0 0 0-.543-.52c-.234-.129-.528-.193-.882-.193-.346 0-.66.08-.942.241a1.652 1.652 0 0 0-.652.677c-.161.29-.242.644-.242 1.063v.108c0 .419.081.777.242 1.075.161.298.378.524.652.677.282.153.596.229.942.229.523 0 .922-.133 1.196-.398.274-.274.447-.62.519-1.039l1.208.278a3.18 3.18 0 0 1-.519 1.135 2.638 2.638 0 0 1-.967.833c-.402.202-.889.302-1.461.302zm-6.48 0c-.757 0-1.385-.169-1.884-.507-.5-.338-.806-.849-.918-1.534l1.159-.278c.065.331.173.592.326.785.153.194.342.331.568.411.233.081.483.121.749.121.394 0 .696-.077.906-.23.217-.153.326-.35.326-.591a.568.568 0 0 0-.302-.532c-.202-.113-.499-.205-.894-.278l-.411-.072a5.364 5.364 0 0 1-1.099-.314 1.92 1.92 0 0 1-.785-.568c-.193-.241-.29-.551-.29-.93 0-.563.21-.998.628-1.304.419-.314.975-.471 1.667-.471.668 0 1.216.153 1.643.459.435.298.716.704.845 1.22l-1.159.326c-.073-.363-.226-.616-.459-.761-.234-.153-.524-.23-.87-.23-.338 0-.604.065-.797.194a.576.576 0 0 0-.29.519c0 .241.093.419.278.531.193.113.451.198.773.254l.423.072c.426.073.817.174 1.171.302.354.129.632.314.834.556.209.242.314.564.314.966 0 .596-.222 1.059-.665 1.389-.443.33-1.038.495-1.787.495zm-6.532-.001c-.58 0-1.027-.104-1.341-.314a2.258 2.258 0 0 1-.688-.7h-.193v.845h-1.22v-8.454h1.244v3.309h.193c.097-.161.226-.314.387-.459.161-.153.374-.278.64-.374.265-.097.592-.145.978-.145.499 0 .958.121 1.377.362.419.242.753.592 1.002 1.051.25.459.375 1.006.375 1.643v.181c0 .644-.129 1.195-.387 1.654a2.64 2.64 0 0 1-1.002 1.039 2.64 2.64 0 0 1-1.365.362zm-.362-1.087c.539 0 .982-.173 1.328-.519.355-.346.532-.841.532-1.486v-.108c0-.636-.173-1.128-.52-1.474-.346-.346-.793-.519-1.34-.519-.532 0-.975.173-1.329.519-.346.346-.519.838-.519 1.474v.108c0 .645.173 1.14.519 1.486.354.346.797.519 1.329.519zm-8.011 1.027c-.45 0-.853-.101-1.207-.302a2.134 2.134 0 0 1-.834-.858c-.201-.37-.302-.813-.302-1.328v-3.575h1.244v3.49c0 .516.129.898.387 1.148.258.241.616.362 1.075.362.507 0 .914-.169 1.22-.507.314-.347.471-.842.471-1.486v-3.007h1.244v5.954h-1.22v-.894h-.193c-.113.242-.314.471-.604.689-.29.209-.717.314-1.281.314zm-6.605.06c-.636 0-1.2-.113-1.691-.339a2.671 2.671 0 0 1-1.159-.99c-.274-.443-.411-.978-.411-1.606v-.302h1.292v.302c0 .595.177 1.042.532 1.34.362.298.841.447 1.437.447.604 0 1.059-.125 1.365-.374.306-.258.459-.588.459-.991 0-.265-.073-.483-.218-.652a1.43 1.43 0 0 0-.616-.398 7.009 7.009 0 0 0-.954-.29l-.447-.109a7.686 7.686 0 0 1-1.413-.471 2.342 2.342 0 0 1-.918-.761c-.217-.314-.326-.717-.326-1.208 0-.499.121-.926.362-1.28.25-.354.592-.628 1.027-.821.435-.194.946-.29 1.534-.29.588 0 1.111.1 1.57.302.467.201.834.499 1.099.893.266.395.399.89.399 1.486v.435h-1.292v-.435c0-.362-.077-.656-.23-.882a1.26 1.26 0 0 0-.616-.495 2.544 2.544 0 0 0-.93-.157c-.515 0-.918.109-1.208.326-.282.21-.423.504-.423.882 0 .258.061.471.182.64.128.161.314.294.555.399.242.104.544.197.906.278l.447.108a7.124 7.124 0 0 1 1.449.471c.419.185.749.439.991.761.241.322.362.737.362 1.244 0 .508-.129.95-.386 1.329-.25.378-.608.676-1.075.894-.467.209-1.019.314-1.655.314z"/><defs><clipPath id="a"><path fill="#fff" d="M204.312 122.779h6.039v6.039h-6.039z"/></clipPath><clipPath id="b"><path fill="#fff" d="M204.312 144.926h6.039v6.039h-6.039z"/></clipPath><clipPath id="c"><path fill="#fff" d="M204.312 167.068h6.039v6.039h-6.039z"/></clipPath><clipPath id="d"><path fill="#fff" d="M204.312 189.211h6.039v6.039h-6.039z"/></clipPath><clipPath id="e"><path fill="#fff" d="M30.195 116.742h6.039v6.039h-6.039z"/></clipPath></defs></svg>