<svg xmlns="http://www.w3.org/2000/svg" width="32" height="32" fill="none"><g fill="#C9FE58" fill-rule="evenodd" clip-path="url(#a)" clip-rule="evenodd"><path d="M16.005 2.927c-7.22 0-13.072 5.853-13.072 13.072 0 7.22 5.852 13.072 13.072 13.072 7.22 0 13.072-5.852 13.072-13.072 0-7.22-5.852-13.072-13.072-13.072zM.633 15.999C.633 7.51 7.515.627 16.005.627s15.372 6.882 15.372 15.372-6.882 15.372-15.372 15.372S.633 24.49.633 16z"/><path d="M16.002 7.738c.635 0 1.15.515 1.15 1.15v5.961h5.487a1.15 1.15 0 0 1 0 2.3h-6.637a1.15 1.15 0 0 1-1.15-1.15V8.89c0-.636.514-1.15 1.15-1.15z"/></g><defs><clipPath id="a"><path fill="#fff" d="M0 0h32v32H0z"/></clipPath></defs></svg>